<svg xmlns="http://www.w3.org/2000/svg" width="140" height="26" fill="none"><path fill="#000000" d="M20.294 26h7.981L40.622 8.2l-.102 12.203h-5.628L31.038 26H44.27L47 23.397V2.603L44.271 0H39.19zm-9.789 0h6.992L36.36 0h-6.993zm5.32-26H2.73L0 2.603v20.794L2.729 26h4.945L26.536 0h-7.913L6.378 17.377 6.481 5.63h5.423zM65.726 14.903 63.083 17.5h-1.44L59 14.903V8.5h1.832v5.657l1.531 1.505 1.531-1.505V8.5h1.832zM70.436 17.5v-1.774h1.57v-5.452h-1.57V8.5h4.972v1.774h-1.57v5.452h1.57V17.5zM85.013 17.5v-2.34H81.95v2.34h-1.833v-6.403L82.762 8.5h1.44l2.642 2.597V17.5zm0-5.657-1.531-1.504-1.531 1.504v1.543h3.062zM99.209 17.5v-9h1.832v7.226h3.847V17.5zM113.969 17.5v-2.34h-3.062v2.34h-1.833v-6.403l2.644-2.597h1.439l2.643 2.597V17.5zm0-5.657-1.531-1.504-1.531 1.504v1.543h3.062zM120.838 17.5v-9h5.404l1.322 1.299v2.546l-.667.655.667.656V16.2l-1.322 1.299zm4.894-6.956-.275-.27h-2.787v1.903h2.787l.275-.27zm0 3.549-.275-.27h-2.787v1.903h2.787l.275-.27zM133.595 17.5l-1.321-1.299V14.66h1.832v.797l.275.27h2.512l.275-.27v-1.299l-.275-.27h-3.298l-1.321-1.298v-2.79l1.321-1.299h4.083L139 9.799v1.543h-1.832v-.798l-.275-.27h-2.512l-.275.27v1.299l.275.27h3.297L139 13.41v2.79l-1.322 1.299z"></path></svg>
